<svg width="200" height="200" viewBox="0 0 200 200" fill="none" xmlns="http://www.w3.org/2000/svg">
<path fill-rule="evenodd" clip-rule="evenodd" d="M24 0C10.7451 0 0 10.7452 0 24V176C0 189.255 10.7451 200 24 200H176C189.255 200 200 189.255 200 176V24C200 10.7452 189.255 0 176 0H24ZM108.706 129.628C108.636 128.371 108.181 126.869 107.342 125.123L79.6482 67.7142C79.1587 66.7365 78.5291 65.8984 77.7598 65.2C77.0605 64.5016 76.2561 63.9778 75.3472 63.6285C74.438 63.2095 73.4587 63 72.4099 63C70.9412 63 69.5076 63.4191 68.1089 64.2571C66.78 65.0952 65.7659 66.2126 65.0667 67.6095L37.4773 124.914C36.5681 126.66 36.0786 128.196 36.0088 129.523C35.9387 130.78 36.2886 131.898 37.0579 132.875C37.897 133.783 39.2258 134.656 41.0439 135.495C43.8416 136.821 45.9744 137.206 47.4431 136.647C48.9817 136.158 50.4502 134.552 51.8489 131.828L57.886 119.152H86.7979L92.8657 131.828C94.1946 134.622 95.6282 136.263 97.1667 136.752C98.7053 137.31 100.873 136.926 103.671 135.599C105.489 134.691 106.783 133.783 107.552 132.875C108.391 131.898 108.776 130.815 108.706 129.628ZM80.3286 105.638L72.3049 88.8759L64.322 105.638H80.3286ZM150.363 134.761C151.622 135.669 153.545 136.123 156.132 136.123C158.72 136.123 160.538 135.774 161.587 135.076C162.707 134.307 163.371 133.295 163.58 132.037C163.861 130.78 164 129.488 164 128.161V92.0188C164 90.6219 163.861 89.295 163.58 88.0378C163.371 86.7807 162.707 85.7681 161.587 84.9998C160.538 84.2315 158.755 83.8474 156.237 83.8474C153.58 83.8474 151.622 84.3014 150.363 85.2093C149.175 86.0474 148.615 87.3045 148.684 88.9807L149.523 90.4474C148.894 89.5395 147.95 88.5966 146.691 87.6188C145.503 86.641 143.999 85.8029 142.18 85.1046C140.363 84.3363 138.16 83.9522 135.572 83.9522C132.355 83.9522 129.312 84.6506 126.445 86.0474C123.578 87.4442 120.99 89.3648 118.682 91.8093C116.445 94.1838 114.661 96.9425 113.332 100.085C112.073 103.158 111.444 106.406 111.444 109.828C111.444 113.32 112.073 116.638 113.332 119.78C114.661 122.923 116.445 125.752 118.682 128.266C120.92 130.711 123.473 132.631 126.34 134.028C129.278 135.425 132.355 136.123 135.572 136.123C138.37 136.123 140.712 135.739 142.6 134.971C144.488 134.133 146.027 133.225 147.216 132.247C148.405 131.199 149.209 130.326 149.628 129.628L148.579 131.409C148.579 132.736 149.175 133.853 150.363 134.761ZM142.81 119.152C141.341 120.06 139.698 120.514 137.879 120.514C135.852 120.514 133.998 120.06 132.32 119.152C130.712 118.174 129.417 116.917 128.438 115.38C127.529 113.774 127.075 112.028 127.075 110.142C127.075 108.117 127.529 106.301 128.438 104.695C129.417 103.089 130.676 101.797 132.215 100.819C133.823 99.8409 135.642 99.3521 137.669 99.3521C139.488 99.3521 141.167 99.8409 142.705 100.819C144.244 101.727 145.468 102.984 146.376 104.59C147.286 106.127 147.74 107.907 147.74 109.933C147.74 111.888 147.286 113.669 146.376 115.276C145.537 116.882 144.349 118.174 142.81 119.152Z" fill="black"/>
</svg>
