<svg width="200" height="200" viewBox="0 0 200 200" fill="none" xmlns="http://www.w3.org/2000/svg">
<path fill-rule="evenodd" clip-rule="evenodd" d="M24 0C10.7452 0 0 10.7452 0 24V176C0 189.255 10.7452 200 24 200H176C189.255 200 200 189.255 200 176V24C200 10.7452 189.255 0 176 0H24ZM161.295 108.783C163.68 106.417 165 103.224 165 99.8736C165 96.5228 163.66 93.31 161.275 90.925L136.048 65.6957C131.121 60.7681 123.139 60.7681 118.212 65.6957C113.284 70.6233 113.284 78.606 118.212 83.5336L134.53 99.8538L118.231 116.174C118.034 116.351 117.837 116.549 117.66 116.746C112.89 121.831 113.146 129.814 118.231 134.584C123.316 139.354 131.298 139.097 136.068 134.012L161.295 108.783ZM63.925 134.012C66.2703 136.397 69.4828 137.718 72.8333 137.718C76.1838 137.718 79.3766 136.397 81.7613 134.032C86.6885 129.104 86.6885 121.121 81.7613 116.194L65.4425 99.8736L81.7613 83.5336C86.6885 78.606 86.6885 70.6233 81.7613 65.6957C76.8342 60.7681 68.8521 60.7681 63.925 65.6957L38.6781 90.9447C33.7707 95.8723 33.7707 103.855 38.6978 108.783L63.925 134.012Z" fill="black"/>
</svg>
