<svg width="200" height="200" viewBox="0 0 200 200" fill="none" xmlns="http://www.w3.org/2000/svg">
<path fill-rule="evenodd" clip-rule="evenodd" d="M24 0C10.7452 0 0 10.7452 0 24V176C0 189.255 10.7452 200 24 200H176C189.255 200 200 189.255 200 176V24C200 10.7452 189.255 0 176 0H24ZM59.9622 149.005C61.9471 150 62.9396 150 64.9245 150C66.9094 150 67.9018 150 69.8867 149.005L139.358 109.204C142.335 107.214 144.32 104.229 144.32 100.249C144.32 96.2687 142.335 93.2836 139.358 91.2935L69.8867 51.4925C66.9094 49.5025 62.9396 49.5025 59.9622 51.4925C56.9849 53.4826 55 56.4677 55 60.4478V140.05C55 144.03 56.9849 147.015 59.9622 149.005ZM114.547 100.249L74.849 123.134V77.3632L114.547 100.249Z" fill="black"/>
</svg>
