<svg width="200" height="200" viewBox="0 0 200 200" fill="none" xmlns="http://www.w3.org/2000/svg">
<path fill-rule="evenodd" clip-rule="evenodd" d="M24 0C10.7452 0 0 10.7452 0 24V176C0 189.255 10.7452 200 24 200H176C189.255 200 200 189.255 200 176V24C200 10.7452 189.255 0 176 0H24ZM73.53 137.68C74.7033 138.487 76.6467 138.89 79.36 138.89C82.0733 138.89 84.0167 138.487 85.19 137.68C86.3633 136.873 87.0967 135.847 87.39 134.6C87.6833 133.28 87.83 131.923 87.83 130.53V116.12H101.91C104.99 116.12 108.107 115.57 111.26 114.47C114.413 113.297 117.31 111.61 119.95 109.41C122.663 107.137 124.827 104.313 126.44 100.94C128.127 97.5667 128.97 93.6433 128.97 89.17C128.97 84.6233 128.127 80.6633 126.44 77.29C124.827 73.9167 122.663 71.0933 119.95 68.82C117.31 66.4733 114.413 64.75 111.26 63.65C108.18 62.55 105.1 62 102.02 62H79.47C76.7567 62 74.8133 62.4033 73.64 63.21C72.4667 64.0167 71.7333 65.08 71.44 66.4C71.1467 67.6467 71 68.9667 71 70.36V130.42C71 131.813 71.1467 133.17 71.44 134.49C71.7333 135.81 72.43 136.873 73.53 137.68ZM102.02 99.4H87.83V78.72H101.91C103.963 78.72 105.76 79.16 107.3 80.04C108.913 80.92 110.16 82.13 111.04 83.67C111.92 85.21 112.36 87.0067 112.36 89.06C112.36 91.48 111.81 93.46 110.71 95C109.683 96.54 108.363 97.6767 106.75 98.41C105.21 99.07 103.633 99.4 102.02 99.4Z" fill="black"/>
</svg>
