<svg width="200" height="200" viewBox="0 0 200 200" fill="none" xmlns="http://www.w3.org/2000/svg">
<path fill-rule="evenodd" clip-rule="evenodd" d="M24 0C10.7452 0 0 10.7452 0 24V176C0 189.255 10.7452 200 24 200H176C189.255 200 200 189.255 200 176V24C200 10.7452 189.255 0 176 0H24ZM74.825 138.157C75.925 138.89 77.4283 139.257 79.335 139.257C81.3883 139.257 82.965 138.853 84.065 138.047C85.2383 137.167 86.0817 136.213 86.595 135.187C87.1083 134.16 87.4017 133.463 87.475 133.097L100.125 92.0667L112.775 133.097C112.922 133.463 113.215 134.16 113.655 135.187C114.168 136.14 115.012 137.057 116.185 137.937C117.358 138.817 118.935 139.257 120.915 139.257C122.968 139.257 124.508 138.89 125.535 138.157C126.635 137.423 127.405 136.617 127.845 135.737C128.358 134.783 128.688 134.087 128.835 133.647L149.515 73.6967C150.102 71.6434 150.358 69.9933 150.285 68.7466C150.285 67.4267 149.845 66.3267 148.965 65.4467C148.085 64.5667 146.545 63.7233 144.345 62.9167C142.292 62.1833 140.568 61.89 139.175 62.0367C137.855 62.1833 136.755 62.77 135.875 63.7967C135.068 64.75 134.335 66.2534 133.675 68.3067L120.035 109.227L108.375 68.6367C108.155 68.1234 107.825 67.39 107.385 66.4366C106.945 65.4833 106.138 64.6033 104.965 63.7967C103.865 62.99 102.178 62.5867 99.905 62.5867C97.925 62.5867 96.385 62.9533 95.285 63.6866C94.185 64.42 93.3783 65.2634 92.865 66.2167C92.425 67.17 92.095 68.0133 91.875 68.7466L80.325 109.007L66.575 68.1967C65.915 66.1433 65.145 64.64 64.265 63.6866C63.4583 62.7333 62.395 62.22 61.075 62.1467C59.8283 62.0734 58.1783 62.3666 56.125 63.0267C52.9717 64.0533 51.065 65.3367 50.405 66.8766C49.745 68.3433 49.8917 70.6167 50.845 73.6967L71.525 133.647C71.6717 134.013 71.965 134.673 72.405 135.627C72.9183 136.58 73.725 137.423 74.825 138.157Z" fill="black"/>
</svg>
