<svg width="200" height="200" viewBox="0 0 200 200" fill="none" xmlns="http://www.w3.org/2000/svg">
<path d="M176.471 0H123.529C127.059 0 129.412 2.35294 129.412 5.88235C129.412 9.41176 127.059 11.7647 123.529 11.7647H111.765C108.235 11.7647 105.882 9.41176 105.882 5.88235C105.882 2.35294 108.235 0 111.765 0H23.5294C10.5882 0 0 10.5882 0 23.5294V176.471C0 189.412 10.5882 200 23.5294 200H176.471C189.412 200 200 189.412 200 176.471V23.5294C200 10.5882 189.412 0 176.471 0ZM76.4706 11.7647H88.2353C91.7647 11.7647 94.1176 14.1176 94.1176 17.6471C94.1176 21.1765 91.7647 23.5294 88.2353 23.5294H76.4706C72.9412 23.5294 70.5882 21.1765 70.5882 17.6471C70.5882 14.1176 72.9412 11.7647 76.4706 11.7647ZM76.4706 35.2941H88.2353C91.7647 35.2941 94.1176 37.6471 94.1176 41.1765C94.1176 44.7059 91.7647 47.0588 88.2353 47.0588H76.4706C72.9412 47.0588 70.5882 44.7059 70.5882 41.1765C70.5882 37.6471 72.9412 35.2941 76.4706 35.2941ZM76.4706 58.8235H88.2353C91.7647 58.8235 94.1176 61.1765 94.1176 64.7059C94.1176 68.2353 91.7647 70.5882 88.2353 70.5882H76.4706C72.9412 70.5882 70.5882 68.2353 70.5882 64.7059C70.5882 61.1765 72.9412 58.8235 76.4706 58.8235ZM129.412 117.647C129.412 130.588 118.824 141.176 105.882 141.176H94.1176C81.1765 141.176 70.5882 130.588 70.5882 117.647V82.3529H129.412V117.647ZM123.529 58.8235H111.765C108.235 58.8235 105.882 56.4706 105.882 52.9412C105.882 49.4118 108.235 47.0588 111.765 47.0588H123.529C127.059 47.0588 129.412 49.4118 129.412 52.9412C129.412 56.4706 127.059 58.8235 123.529 58.8235ZM123.529 35.2941H111.765C108.235 35.2941 105.882 32.9412 105.882 29.4118C105.882 25.8824 108.235 23.5294 111.765 23.5294H123.529C127.059 23.5294 129.412 25.8824 129.412 29.4118C129.412 32.9412 127.059 35.2941 123.529 35.2941Z" fill="black"/>
</svg>
