<svg width="200" height="200" viewBox="0 0 200 200" fill="none" xmlns="http://www.w3.org/2000/svg">
<path fill-rule="evenodd" clip-rule="evenodd" d="M24 0C10.7452 0 0 10.7452 0 24V176C0 189.255 10.7452 200 24 200H176C189.255 200 200 189.255 200 176V24C200 10.7452 189.255 0 176 0H24ZM140.971 50.0762C143 49.7623 145.071 50.4318 146.557 51.8336C148.042 53.2563 148.795 55.2648 148.649 57.2943L142.54 121.881L142.527 122.055C142.469 122.852 142.412 123.632 142.372 124.412C141.849 133.2 134.569 140.167 125.657 140.167C116.285 140.167 108.732 132.488 108.92 123.073C109.109 114.035 116.577 106.712 125.615 106.691C127.352 106.691 129.004 106.942 130.573 107.424L133.502 75.5593L90.2174 81.9196L85.6149 131.756C85.5312 132.572 85.4894 133.367 85.4475 134.183C84.9663 142.991 77.665 150 68.7319 150C59.2549 150 51.598 142.112 52.0164 132.53C52.3929 123.868 59.4432 116.859 68.1043 116.546C69.9872 116.483 71.8073 116.734 73.5228 117.236L78.3763 64.4496C78.6483 61.3741 81.0123 58.8844 84.0667 58.445L140.971 50.0762Z" fill="black"/>
</svg>
