<svg width="200" height="200" viewBox="0 0 200 200" fill="none" xmlns="http://www.w3.org/2000/svg">
<path fill-rule="evenodd" clip-rule="evenodd" d="M24 0C10.7452 0 0 10.7452 0 24V176C0 189.255 10.7452 200 24 200H176C189.255 200 200 189.255 200 176V24C200 10.7452 189.255 0 176 0H24ZM36.7509 126.166C37.5629 126.722 38.9078 127 40.7855 127C42.6633 127 44.0082 126.722 44.8201 126.166C45.6321 125.61 46.1396 124.902 46.3427 124.043C46.5457 123.133 46.6472 122.198 46.6472 121.238V111.307H56.3912C58.5227 111.307 60.6796 110.928 62.8618 110.169C65.0441 109.361 67.0487 108.198 68.8757 106.682C70.7535 105.115 72.2506 103.169 73.3671 100.844C74.5344 98.5193 75.118 95.8154 75.118 92.7323C75.118 89.5986 74.5344 86.8694 73.3671 84.5444C72.2506 82.2195 70.7535 80.2736 68.8757 78.7068C67.0487 77.0894 65.0441 75.9017 62.8618 75.1436C60.7303 74.3854 58.5988 74.0063 56.4673 74.0063H40.8616C38.9839 74.0063 37.639 74.2843 36.827 74.8403C36.015 75.3962 35.5075 76.1291 35.3045 77.0389C35.1015 77.8981 35 78.8079 35 79.7681V121.162C35 122.123 35.1015 123.058 35.3045 123.967C35.5075 124.877 35.9896 125.61 36.7509 126.166ZM56.4673 99.783H46.6472V85.53H56.3912C57.8122 85.53 59.0555 85.8333 60.1213 86.4398C61.2378 87.0463 62.1006 87.8802 62.7096 88.9416C63.3186 90.003 63.6231 91.2413 63.6231 92.6564C63.6231 94.3243 63.2424 95.689 62.4812 96.7504C61.7707 97.8118 60.8572 98.5952 59.7407 99.1006C58.6749 99.5555 57.5838 99.783 56.4673 99.783ZM81.8688 126.166C82.6808 126.722 83.9749 127 85.7512 127H99.3015C103.057 127 106.508 126.318 109.654 124.953C112.852 123.588 115.643 121.718 118.028 119.343C120.414 116.917 122.266 114.086 123.585 110.852C124.905 107.566 125.565 104.029 125.565 100.238C125.565 96.4977 124.905 93.0355 123.585 89.8514C122.266 86.6672 120.414 83.8873 118.028 81.5118C115.643 79.1364 112.877 77.2916 109.731 75.9775C106.584 74.6634 103.184 74.0063 99.5298 74.0063H85.8273C83.9495 73.9557 82.6047 74.2085 81.7927 74.7645C80.9807 75.3204 80.4731 76.0533 80.2701 76.9631C80.0671 77.8223 79.9656 78.7321 79.9656 79.6923V121.162C79.9656 122.173 80.0925 123.133 80.3463 124.043C80.6 124.902 81.1075 125.61 81.8688 126.166ZM99.5298 115.401H91.5367V85.53H99.4537C102.245 85.53 104.732 86.187 106.914 87.5012C109.096 88.7647 110.822 90.5337 112.091 92.8081C113.359 95.0825 113.994 97.6602 113.994 100.541C113.994 103.422 113.359 105.974 112.091 108.198C110.822 110.422 109.096 112.191 106.914 113.505C104.732 114.769 102.27 115.401 99.5298 115.401ZM133.328 126.242C134.14 126.747 135.46 127 137.287 127C139.215 127 140.56 126.747 141.322 126.242C142.134 125.686 142.641 124.978 142.844 124.119C143.047 123.209 143.149 122.274 143.149 121.314V105.317H158.678C159.744 105.317 160.657 105.242 161.419 105.09C162.231 104.938 162.865 104.534 163.322 103.877C163.779 103.169 164.007 102.007 164.007 100.389C164.007 98.7216 163.779 97.5338 163.322 96.8262C162.865 96.1186 162.231 95.689 161.419 95.5374C160.657 95.3857 159.769 95.3099 158.754 95.3099H143.149V85.53H158.138C159.153 85.53 160.092 85.4542 160.955 85.3026C161.869 85.1003 162.604 84.595 163.163 83.7863C163.721 82.9776 164 81.6635 164 79.844C164 77.9233 163.721 76.5587 163.163 75.7501C162.655 74.9413 161.97 74.4612 161.107 74.3096C160.245 74.1074 159.306 74.0063 158.291 74.0063H137.515C135.282 74.0063 133.734 74.4106 132.872 75.2194C132.009 76.028 131.578 77.5443 131.578 79.7681V121.238C131.578 122.198 131.654 123.133 131.806 124.043C132.009 124.953 132.516 125.686 133.328 126.242Z" fill="black"/>
</svg>
