<svg width="200" height="200" viewBox="0 0 200 200" fill="none" xmlns="http://www.w3.org/2000/svg">
<path fill-rule="evenodd" clip-rule="evenodd" d="M24 0C10.7451 0 0 10.7452 0 24V176C0 189.255 10.7451 200 24 200H176C189.255 200 200 189.255 200 176V24C200 10.7452 189.255 0 176 0H24ZM94.8237 113.8C95.9238 114.46 97.7205 114.79 100.214 114.79C102.707 114.79 104.504 114.497 105.604 113.91C106.704 113.323 107.4 112.517 107.694 111.49C107.987 110.463 108.134 109.363 108.134 108.19V104.99C108.812 104.774 109.618 104.484 110.554 104.12C111.874 103.533 113.304 102.763 114.844 101.81C116.457 100.783 117.96 99.5 119.354 97.96C120.747 96.3467 121.884 94.4033 122.764 92.13C123.644 89.8567 124.084 87.2167 124.084 84.21C124.084 79.7367 123.021 75.7767 120.894 72.33C118.84 68.8834 115.98 66.1334 112.314 64.08C108.647 62.0267 104.43 61 99.6638 61C96.2905 61 93.3569 61.44 90.8638 62.32C88.3704 63.2 86.2437 64.3367 84.4836 65.73C82.7236 67.05 81.2937 68.4434 80.1938 69.91C79.167 71.3033 78.3604 72.6233 77.7737 73.87C77.187 75.0433 76.8203 75.9233 76.6738 76.51C76.1604 78.27 75.9404 79.7 76.0137 80.8C76.0872 81.9 76.6003 82.8533 77.5537 83.66C78.5071 84.3933 80.0105 85.1633 82.0637 85.97C83.9705 86.7033 85.5105 86.9967 86.6838 86.85C87.8569 86.63 88.8105 86.0067 89.5437 84.98C90.3503 83.9533 91.0471 82.56 91.6338 80.8C92.0005 79.9933 92.5137 79.26 93.1738 78.6C93.8337 77.94 94.7139 77.39 95.8137 76.95C96.9138 76.51 98.197 76.29 99.6638 76.29C102.817 76.29 105.164 76.9867 106.704 78.38C108.244 79.7 109.014 81.7533 109.014 84.54C109.014 86.4467 108.61 87.95 107.804 89.05C106.997 90.15 105.97 91.0667 104.724 91.8C103.477 92.46 102.157 93.0833 100.764 93.67C99.3704 94.2567 98.0505 94.9533 96.8037 95.76C95.5571 96.4933 94.5305 97.4833 93.7236 98.73C92.917 99.9033 92.5137 101.517 92.5137 103.57V107.53C92.5137 108.777 92.6238 109.95 92.8438 111.05C93.137 112.15 93.7971 113.067 94.8237 113.8ZM92.8438 137.78C94.0171 139.173 96.4004 139.87 99.9937 139.87C103 139.87 105.127 139.43 106.374 138.55C107.694 137.597 108.464 136.46 108.684 135.14C108.977 133.747 109.124 132.353 109.124 130.96C109.124 127.66 108.537 125.35 107.364 124.03C106.264 122.637 103.844 121.94 100.104 121.94C97.0972 121.94 94.9705 122.38 93.7236 123.26C92.4771 124.14 91.707 125.277 91.4138 126.67C91.1938 128.063 91.0837 129.457 91.0837 130.85C91.0837 134.077 91.6704 136.387 92.8438 137.78Z" fill="black"/>
</svg>
